<?xml version="1.0" encoding="UTF-8" standalone="no"?>
<!-- Created with Inkscape (http://www.inkscape.org/) -->

<svg
   xmlns:osb="http://www.openswatchbook.org/uri/2009/osb"
   xmlns:dc="http://purl.org/dc/elements/1.1/"
   xmlns:cc="http://creativecommons.org/ns#"
   xmlns:rdf="http://www.w3.org/1999/02/22-rdf-syntax-ns#"
   xmlns:svg="http://www.w3.org/2000/svg"
   xmlns="http://www.w3.org/2000/svg"
   xmlns:sodipodi="http://sodipodi.sourceforge.net/DTD/sodipodi-0.dtd"
   xmlns:inkscape="http://www.inkscape.org/namespaces/inkscape"
   id="svg2"
   version="1.1"
   inkscape:version="0.91 r13725"
   xml:space="preserve"
   width="1337.775"
   height="889.9375"
   viewBox="0 0 1337.775 889.9375"
   sodipodi:docname="galileorobotics4669logoewebsite.svg"
   inkscape:export-filename="C:\Users\dexti_000\Downloads\FRC4669\galileorobotics4669logoewebsite.png"
   inkscape:export-xdpi="72"
   inkscape:export-ydpi="72"><metadata
     id="metadata8"><rdf:RDF><cc:Work
         rdf:about=""><dc:format>image/svg+xml</dc:format><dc:type
           rdf:resource="http://purl.org/dc/dcmitype/StillImage" /><dc:title></dc:title></cc:Work></rdf:RDF></metadata><defs
     id="defs6"><linearGradient
       id="linearGradient4214"
       osb:paint="solid"><stop
         style="stop-color:#ffffff;stop-opacity:1;"
         offset="0"
         id="stop4216" /></linearGradient><clipPath
       clipPathUnits="userSpaceOnUse"
       id="clipPath54"><path
         d="m 3176.2,912.691 -1675.9,0 c -6.03,11.539 -11.84,23.231 -17.4,35.039 l 0,804.54 c 2.5,5.29 5.03,10.54 7.62,15.78 l 1695.47,0 c 2.59,-5.24 5.13,-10.52 7.63,-15.81 l 0,-804.478 c -5.56,-11.813 -11.39,-23.532 -17.42,-35.071"
         id="path56"
         inkscape:connector-curvature="0" /></clipPath><clipPath
       clipPathUnits="userSpaceOnUse"
       id="clipPath66"><path
         d="m 3193.62,912.691 -17.42,0 c 6.03,11.539 11.86,23.258 17.42,35.071 l 0,-35.071 m -1693.32,0 -17.4,0 0,35.039 c 5.56,-11.808 11.37,-23.5 17.4,-35.039 m 1693.32,839.549 c -2.5,5.29 -5.04,10.57 -7.63,15.81 l 7.63,0 0,-15.81 m -1710.72,0.03 0,15.78 7.62,0 c -2.59,-5.24 -5.12,-10.49 -7.62,-15.78"
         id="path68"
         inkscape:connector-curvature="0" /></clipPath></defs><sodipodi:namedview
     pagecolor="#00e700"
     bordercolor="#666666"
     borderopacity="1"
     objecttolerance="10"
     gridtolerance="10"
     guidetolerance="10"
     inkscape:pageopacity="0"
     inkscape:pageshadow="2"
     inkscape:window-width="1280"
     inkscape:window-height="800"
     id="namedview4"
     showgrid="false"
     inkscape:zoom="0.50000002"
     inkscape:cx="641.02979"
     inkscape:cy="504.93556"
     inkscape:window-x="-8"
     inkscape:window-y="-8"
     inkscape:window-maximized="1"
     inkscape:current-layer="g10" /><g
     id="g10"
     inkscape:groupmode="layer"
     inkscape:label="ink_ext_XXXXXX"
     transform="matrix(1.25,0,0,-1.25,0,889.9375)"><g
       style="fill:#ffffff;fill-opacity:1;stroke:#ffffff;stroke-opacity:1"
       id="g14"><g
         transform="matrix(1,0,0,-1,425.958,484.298)"
         style="font-variant:normal;font-weight:bold;font-size:200px;font-family:'Myriad Pro';-inkscape-font-specification:MyriadPro-Bold;writing-mode:lr-tb;fill:#ffffff;fill-opacity:1;fill-rule:nonzero;stroke:#ffffff;stroke-opacity:1"
         id="text16"><path
           d="M 83.2,-34.6 93.6,0 l 32.8,0 -41.8,-134.8 -40,0 L 3.4,0 35,0 l 9.6,-34.6 38.6,0 z M 49,-57.4 57,-86 c 2.2,-7.8 4.2,-18 6.2,-26 l 0.4,0 c 2,8 4.4,18 6.8,26 l 8.4,28.6 -29.8,0 z"
           style=""
           id="path3457" /><path
           d="m 144.4,0 84.2,0 0,-25.6 -53.6,0 0,-109.2 -30.6,0 0,134.8 z"
           style=""
           id="path3459" /><path
           d="m 246.59999,-134.8 0,134.8 30.6,0 0,-134.8 -30.6,0 z"
           style=""
           id="path3461" /><path
           d="m 303.59999,0 84.2,0 0,-25.6 -53.6,0 0,-109.2 -30.6,0 0,134.8 z"
           style=""
           id="path3463" /><path
           d="m 485.9899,-81.8 -49.6,0 0,-28 52.6,0 0,-25 -83.2,0 0,134.8 86,0 0,-25 -55.4,0 0,-32 49.6,0 0,-24.8 z"
           style=""
           id="path3465" /><path
           d="m 571.98989,-137 c -39.8,0 -65.6,30.2 -65.6,70.6 0,38.4 23.4,68.6 63.4,68.6 39.4,0 66.2,-26.8 66.2,-71 0,-37.2 -22.6,-68.2 -64,-68.2 z m -0.8,24.2 c 21,0 32.6,20.8 32.6,45 0,26.2 -11.8,45.8 -32.4,45.8 -20.4,0 -32.8,-18.6 -32.8,-45 0,-26.2 12,-45.8 32.6,-45.8 z"
           style=""
           id="path3467" /></g><g
         transform="matrix(1,0,0,-1,320.274,279.426)"
         style="font-variant:normal;font-weight:bold;font-size:200px;font-family:'Myriad Pro';-inkscape-font-specification:MyriadPro-BoldIt;writing-mode:lr-tb;fill:#ffffff;fill-opacity:1;fill-rule:nonzero;stroke:#ffffff;stroke-opacity:1"
         id="text20"><path
           d="m 3.8,0 28.6,0 10,-53.2 8.8,0 c 11.4,0 17,5 18.2,21.4 1.4,16.6 2.8,28.2 4,31.8 L 103,0 C 100.6,-5.6 99.4,-23.2 97.8,-38.2 96.4,-50.4 93,-59.4 85,-62.8 l 0,-0.8 c 17.2,-5.6 30.6,-18 30.6,-38 0,-12.6 -6.2,-21.2 -15,-26.4 -9.4,-5.8 -22.6,-7.8 -35.4,-7.8 -13.4,0 -27,1.4 -36,3.6 L 3.8,0 Z m 50,-112 c 2.4,-0.6 5.8,-1 11.2,-1 11.4,0 20.6,4.8 20.6,15.6 0,13.2 -11.4,22.6 -27,22.6 l -12,0 7.2,-37.2 z"
           style="font-style:italic;font-variant:normal;font-weight:bold;font-stretch:normal;font-size:200px;line-height:125%;font-family:'Myriad Pro';-inkscape-font-specification:'Myriad Pro, Bold Italic';text-align:start;writing-mode:lr-tb;text-anchor:start;fill:#ffffff;fill-opacity:1;stroke:#ffffff;stroke-opacity:1"
           id="path3470" /><path
           d="m 178.80098,-100 c -34.8,0 -58.4,27.8 -58.4,61.8 0,24.2 16.6,40.4 41.4,40.4 34,0 58.4,-26.2 58.4,-62 0,-22.2 -15.2,-40.2 -41.4,-40.2 z m -3.8,21.8 c 11.6,0 15.4,9.6 15.4,18.6 0,16.8 -8.8,39.8 -24.6,39.8 -10,0 -15.6,-7.6 -15.6,-19 -0.2,-15.2 8.2,-39.4 24.8,-39.4 z"
           style="font-style:italic;font-variant:normal;font-weight:bold;font-stretch:normal;font-size:200px;line-height:125%;font-family:'Myriad Pro';-inkscape-font-specification:'Myriad Pro, Bold Italic';text-align:start;writing-mode:lr-tb;text-anchor:start;fill:#ffffff;fill-opacity:1;stroke:#ffffff;stroke-opacity:1"
           id="path3472" /><path
           d="m 255.39897,-142 -19.8,98.8 c -1.2,6 -2.2,12 -2.2,18 0,17.4 11.6,27.4 34.8,27.4 44,0 64.8,-36.4 64.8,-68.2 0,-17.4 -9.2,-34 -29.6,-34 -12,0 -23,5.2 -30.2,13.8 l -0.4,0 11.6,-55.8 -29,0 z m 10.6,92.8 c 3.4,-17 13.6,-27.6 24,-27.6 8.8,0 12.8,7.4 12.8,17 0,17 -12,40.2 -28.6,40.2 -6.6,0 -10.8,-3.8 -11,-10.8 -0.2,-4.2 0.4,-7.6 1,-10.8 l 1.8,-8 z"
           style="font-style:italic;font-variant:normal;font-weight:bold;font-stretch:normal;font-size:200px;line-height:125%;font-family:'Myriad Pro';-inkscape-font-specification:'Myriad Pro, Bold Italic';text-align:start;writing-mode:lr-tb;text-anchor:start;fill:#ffffff;fill-opacity:1;stroke:#ffffff;stroke-opacity:1"
           id="path3474" /><path
           d="m 403.59702,-100 c -34.8,0 -58.4,27.8 -58.4,61.8 0,24.2 16.6,40.4 41.4,40.4 34,0 58.4,-26.2 58.4,-62 0,-22.2 -15.2,-40.2 -41.4,-40.2 z m -3.8,21.8 c 11.6,0 15.4,9.6 15.4,18.6 0,16.8 -8.8,39.8 -24.6,39.8 -10,0 -15.6,-7.6 -15.6,-19 -0.2,-15.2 8.2,-39.4 24.8,-39.4 z"
           style="font-style:italic;font-variant:normal;font-weight:bold;font-stretch:normal;font-size:200px;line-height:125%;font-family:'Myriad Pro';-inkscape-font-specification:'Myriad Pro, Bold Italic';text-align:start;writing-mode:lr-tb;text-anchor:start;fill:#ffffff;fill-opacity:1;stroke:#ffffff;stroke-opacity:1"
           id="path3476" /><path
           d="m 479.19503,-116.2 -3.6,18.4 -12.6,0 -4,21.8 12.4,0 -7.6,38.8 c -1.4,7.6 -2,12.8 -2,18.2 0,12.2 8.2,21.2 25.4,21.2 6.2,0 13.4,-0.8 17,-2.2 l 3.4,-22.6 c -2.6,0.4 -5.4,0.4 -8,0.4 -6.2,0 -8.2,-3.4 -8.2,-8.2 0,-3.4 0.8,-8.6 1.6,-12.4 l 6.6,-33.2 20.8,0 4.2,-21.8 -20.8,0 5,-26.6 -29.6,8.2 z"
           style="font-style:italic;font-variant:normal;font-weight:bold;font-stretch:normal;font-size:200px;line-height:125%;font-family:'Myriad Pro';-inkscape-font-specification:'Myriad Pro, Bold Italic';text-align:start;writing-mode:lr-tb;text-anchor:start;fill:#ffffff;fill-opacity:1;stroke:#ffffff;stroke-opacity:1"
           id="path3478" /><path
           d="m 551.99357,0 18.6,-97.8 -28.8,0 -18.6,97.8 28.8,0 z m 7.8,-110 c 9.2,0 17,-6 17,-16.2 0,-8.6 -6,-14.2 -14.4,-14.2 -8.8,0 -16.4,6.6 -16.6,16.4 0,8.6 6,14 13.8,14 l 0.2,0 z"
           style="font-style:italic;font-variant:normal;font-weight:bold;font-stretch:normal;font-size:200px;line-height:125%;font-family:'Myriad Pro';-inkscape-font-specification:'Myriad Pro, Bold Italic';text-align:start;writing-mode:lr-tb;text-anchor:start;fill:#ffffff;fill-opacity:1;stroke:#ffffff;stroke-opacity:1"
           id="path3480" /><path
           d="m 648.19357,-25 c -5,2 -11,4 -19.4,4 -10.8,0 -19.2,-6.8 -19.2,-20.2 0,-18.4 12.6,-35.8 33.2,-35.8 5.8,0 9.8,1 13.2,2.4 l 7,-22.2 c -4.2,-1.6 -11.4,-3.2 -19.8,-3.2 -37.2,0 -63.8,27.2 -63.8,62 0,25.4 17,40.2 41.2,40.2 11.6,0 21.6,-2.2 27.8,-5.2 l -0.2,-22 z"
           style="font-style:italic;font-variant:normal;font-weight:bold;font-stretch:normal;font-size:200px;line-height:125%;font-family:'Myriad Pro';-inkscape-font-specification:'Myriad Pro, Bold Italic';text-align:start;writing-mode:lr-tb;text-anchor:start;fill:#ffffff;fill-opacity:1;stroke:#ffffff;stroke-opacity:1"
           id="path3482" /><path
           d="m 661.19109,-5.6 c 5.8,4.4 17.6,7.4 30,7.8 25.8,0.2 44.8,-12.2 44.8,-34.6 0,-13.6 -11.2,-21.4 -21.8,-26.8 -8,-3.8 -12,-7.2 -12,-11.2 0,-5.2 5.2,-8.6 12.8,-8.6 8.6,0 15.4,2.4 19.6,4.4 l 6.8,-20.4 c -4.8,-2.8 -13.8,-5 -25.2,-5 -25.2,0 -43,13.4 -43,33.6 0,12.2 9.4,20.4 20.8,26 9,4.4 12.2,7.8 12.2,12.6 0,4.8 -4.2,8.8 -12.4,8.8 -9.4,0 -20,-4 -25.6,-6.8 l -7,20.2 z"
           style="font-style:italic;font-variant:normal;font-weight:bold;font-stretch:normal;font-size:200px;line-height:125%;font-family:'Myriad Pro';-inkscape-font-specification:'Myriad Pro, Bold Italic';text-align:start;writing-mode:lr-tb;text-anchor:start;fill:#ffffff;fill-opacity:1;stroke:#ffffff;stroke-opacity:1"
           id="path3484" /></g></g><path
       inkscape:connector-curvature="0"
       id="path24"
       style="fill:#ffffff;fill-opacity:1;fill-rule:nonzero;stroke:#ffffff;stroke-width:0.1;stroke-opacity:1"
       d="m 284.822,544.426 1,0 0,30 -1,0 0,-30 z" /><path
       inkscape:connector-curvature="0"
       id="path26"
       style="fill:#ffffff;fill-opacity:1;fill-rule:nonzero;stroke:#ffffff;stroke-width:0.1;stroke-opacity:1"
       d="m 285.322,543.926 103.536,0 0,1 -103.536,0 0,-1 z" /><path
       inkscape:connector-curvature="0"
       id="path28"
       style="fill:#ffffff;fill-opacity:1;fill-rule:nonzero;stroke:#ffffff;stroke-width:0.1;stroke-opacity:1"
       d="m 285.322,573.926 129.904,0 0,1 -129.904,0 0,-1 z" /><path
       inkscape:connector-curvature="0"
       id="path30"
       style="fill:#ffffff;fill-opacity:1;fill-rule:nonzero;stroke:#ffffff;stroke-width:0.1;stroke-opacity:1"
       d="m 388.858,544.426 -103.536,0 0,30 129.904,0 0,-30" /><path
       inkscape:connector-curvature="0"
       id="path32"
       style="fill:#ffffff;fill-opacity:1;fill-rule:nonzero;stroke:#ffffff;stroke-width:0.1;stroke-opacity:1"
       d="m 385.715,561.946 3.152,-17.521 c -8.341,-49.649 -51.526,-87.479 -103.545,-87.479 -57.99,0 -105,47.01 -105,105 0,57.99 47.01,105 105,105 38.861,0 72.791,-21.111 90.947,-52.491 l 38.955,22.491 0,0 -129.903,75 -129.904,-75 0,-150 129.905,-75 129.903,74.999 -0.001,75.001 -29.509,0" /><path
       inkscape:connector-curvature="0"
       id="path34"
       style="fill:#ffffff;fill-opacity:1;fill-rule:nonzero;stroke:#ffffff;stroke-width:0.1;stroke-opacity:1"
       d="m 116.913,432.519 c -52.1907,0 -94.5005,-42.309 -94.5005,-94.5 0,-52.191 42.3098,-94.5 94.5005,-94.5 52.191,0 94.5,42.309 94.5,94.5 0,52.191 -42.309,94.5 -94.5,94.5 z m 0,-229.5 -116.913,67.5 0,135 116.914,67.5 116.912,-67.5 0,-135 -116.913,-67.5" /><path
       inkscape:connector-curvature="0"
       id="path36"
       style="fill:#ffffff;fill-opacity:1;fill-rule:nonzero;stroke:#ffffff;stroke-width:0.1;stroke-opacity:1"
       d="m 130.413,338.019 c 0,-7.457 -6.044,-13.5 -13.5,-13.5 -7.455,0 -13.5,6.043 -13.5,13.5 0,7.456 6.045,13.5 13.5,13.5 7.456,0 13.5,-6.044 13.5,-13.5" /><path
       inkscape:connector-curvature="0"
       id="path38"
       style="fill:#ffffff;fill-opacity:1;fill-rule:nonzero;stroke:#ffffff;stroke-width:0.1;stroke-opacity:1"
       d="m 145.815,342.168 52.16,13.976 -6.988,26.08 -52.159,-13.978 6.987,-26.078" /><path
       inkscape:connector-curvature="0"
       id="path40"
       style="fill:#ffffff;fill-opacity:1;fill-rule:nonzero;stroke:#ffffff;stroke-width:0.1;stroke-opacity:1"
       d="m 93.0547,332.221 52.1593,13.978 -4.891,18.255 -52.1597,-13.976 4.8914,-18.257" /><path
       inkscape:connector-curvature="0"
       id="path42"
       style="fill:#ffffff;fill-opacity:1;fill-rule:nonzero;stroke:#ffffff;stroke-width:0.1;stroke-opacity:1"
       d="m 39.8457,322.16 52.1609,13.974 -2.7953,10.433 -52.1605,-13.976 2.7949,-10.431" /><path
       inkscape:connector-curvature="0"
       id="path44"
       style="fill:#ffffff;fill-opacity:1;fill-rule:nonzero;stroke:#ffffff;stroke-width:0.1;stroke-opacity:1"
       d="m 120.403,331.784 -40.4999,-70.148 -4.6761,2.701 40.5,70.147 4.676,-2.7" /><path
       inkscape:connector-curvature="0"
       id="path46"
       style="fill:#ffffff;fill-opacity:1;fill-rule:nonzero;stroke:#ffffff;stroke-width:0.1;stroke-opacity:1"
       d="m 154.068,261.634 -40.5,70.15 4.676,2.7 40.5,-70.149 -4.676,-2.701" /><path
       inkscape:connector-curvature="0"
       id="path48"
       style="fill:#ffffff;fill-opacity:1;fill-rule:nonzero;stroke:#ffffff;stroke-width:0.1;stroke-opacity:1"
       d="m 233.826,229.5 c -52.191,0 -94.501,-42.309 -94.501,-94.5 0,-52.1918 42.31,-94.5 94.501,-94.5 52.191,0 94.499,42.3082 94.499,94.5 0,52.191 -42.308,94.5 -94.499,94.5 m 0,-229.5 -116.913,67.5 0,135 116.914,67.5 116.912,-67.5 0,-135 L 233.826,0" /><path
       style="fill:#ffffff;fill-opacity:1;stroke:#ffffff;stroke-opacity:1"
       d="m 245.86523,96.276202 c -0.38141,0.257212 -1.20379,0.919763 -1.82749,1.472334 -0.6237,0.55257 -1.66673,1.406704 -2.31784,1.898076 -0.6558,0.494918 -1.32288,1.171528 -1.49557,1.516948 -0.35186,0.7038 -0.41615,2.6337 -0.12921,3.87845 0.47311,2.0523 0.52453,3.24357 0.31646,7.33087 -0.23089,4.53549 -0.10447,6.63809 0.58556,9.73887 0.19522,0.87724 0.29168,1.6583 0.21437,1.73568 -0.1287,0.12882 -8.5776,4.08476 -8.72403,4.08476 -0.0351,0 -0.0638,-0.95319 -0.0638,-2.1182 0,-2.46575 -0.30241,-4.4054 -1.07501,-6.8951 -0.92791,-2.99021 -1.24026,-4.38891 -1.35813,-6.08175 -0.26417,-3.79402 1.01612,-5.90574 5.99328,-9.8854 2.4607,-1.96754 3.21508,-2.80334 3.21508,-3.562087 0,-1.098504 -0.97317,-1.69512 -2.5693,-1.575155 -0.66065,0.04966 -1.35631,-0.01264 -1.77678,-0.159085 -1.74477,-0.60772 -2.50619,-0.212612 -3.57788,1.856595 -1.03341,1.995312 -1.53758,2.527442 -3.93268,4.150802 -1.1122,0.75382 -2.71099,2.06798 -3.69312,3.03561 -2.68847,2.6488 -2.9833,3.74611 -1.60534,5.97504 0.84668,1.36955 0.83896,2.0673 -0.0494,4.46267 -1.63873,4.41866 -4.75725,8.99992 -8.967,13.17297 l -1.40762,1.39535 -4.79772,-3.02048 c -6.37866,-4.01579 -10.45502,-6.6499 -13.78749,-8.90935 -1.58604,-1.07536 -3.74577,-2.34365 -5.10403,-2.99733 -2.19539,-1.05656 -2.46758,-1.24567 -4.02578,-2.79697 -1.15443,-1.14933 -2.1398,-1.93427 -3.1867,-2.53852 -0.83353,-0.4811 -1.69748,-1.03855 -1.91989,-1.23877 -0.53457,-0.48125 -0.92747,-1.84011 -1.04016,-3.59737 -0.13201,-2.05863 -0.0195,-2.20732 2.10034,-2.77691 2.68392,-0.72113 3.27792,-1.2739 3.14128,-2.92322 -0.12431,-1.500406 -0.64358,-2.03529 -3.22497,-3.321929 -2.82241,-1.406777 -3.41909,-1.459135 -4.67885,-0.410564 -1.09021,0.90744 -1.78589,1.266873 -2.75099,1.421347 -0.90591,0.144997 -1.13113,0.457153 -1.53098,2.121936 -0.3967,1.6517 -0.55743,6.56693 -0.26896,8.22506 0.11711,0.67315 0.56483,2.04848 0.99492,3.0563 0.43009,1.00781 1.11022,2.87769 1.5114,4.15529 0.55712,1.77422 0.82983,2.38875 1.15455,2.60172 0.24698,0.16198 1.13735,0.34627 2.12472,0.43978 2.03628,0.19283 2.76058,0.4673 3.3807,1.28109 0.76067,0.99824 2.43182,4.67722 4.91541,10.82113 3.09155,7.64785 4.10471,9.82204 5.9169,12.69733 0.83516,1.3251 1.82632,2.93128 2.20257,3.56929 0.37625,0.63801 0.85025,1.4411 1.05332,1.78465 l 0.36922,0.62462 -0.61865,-0.50795 c -1.35059,-1.10891 -8.79998,-8.2972 -10.90023,-10.51818 -6.56467,-6.94201 -9.09647,-10.16985 -13.25856,-16.9036 -2.75359,-4.45497 -5.28309,-7.70301 -8.07798,-10.37262 -2.76626,-2.64226 -4.76821,-3.72609 -6.88251,-3.72609 -2.47024,0 -5.26015,2.01114 -5.84948,4.21667 -0.11468,0.42919 -0.2721,0.78034 -0.34982,0.78034 -0.0777,0 -0.14132,0.4417 -0.14132,0.98156 0,0.53986 0.0715,0.98156 0.15897,0.98156 0.0874,0 0.20775,0.19456 0.26738,0.43237 0.12914,0.51503 1.01097,1.43495 1.73456,1.80949 1.31887,0.68267 3.22999,0.61442 4.03685,-0.14416 0.95685,-0.89959 0.81443,-2.68198 -0.32801,-4.10495 l -0.56895,-0.70865 0.60349,0.12791 c 2.22411,0.47142 4.24816,1.70025 6.23774,3.78704 1.36293,1.42952 1.94206,2.24824 4.36554,6.17164 5.98324,9.68633 18.7549,23.78334 28.33368,31.27394 4.38561,3.42955 6.9827,4.87175 10.71422,5.94979 5.4462,1.5734 8.59716,2.03979 13.71222,2.02959 4.22736,-0.008 7.44748,-0.30516 14.94138,-1.37688 8.35358,-1.19466 8.99717,-1.24967 14.65563,-1.25276 4.27902,-0.002 5.46948,0.0537 6.90417,0.32513 l 1.7336,0.32795 2.60162,1.86247 c 5.16827,3.69992 8.81701,6.01493 11.35656,7.20538 1.32579,0.62148 1.95767,0.77211 6.28787,1.4989 8.87406,1.48945 13.529,2.06311 16.79246,2.06945 1.96915,0.004 5.8719,-0.62105 7.90143,-1.2651 2.80371,-0.88973 3.74833,-2.21658 3.11949,-4.38177 -0.15833,-0.54514 -0.26306,-1.00974 -0.23274,-1.03244 0.0303,-0.0227 0.9778,-0.48536 2.10552,-1.02813 2.51766,-1.21174 3.33332,-1.8021 4.19485,-3.03611 0.64642,-0.92589 0.8034,-1.02621 4.631,-2.95929 3.60567,-1.82101 4.35527,-2.28747 5.0366,-3.13421 0.26636,-0.33102 0.29251,-1.11395 0.0473,-1.41498 -0.87542,-1.07453 -1.07246,-1.38416 -1.07246,-1.68528 0,-0.70741 -0.53107,-2.07992 -1.05944,-2.73803 -0.47648,-0.59348 -0.52112,-0.7402 -0.35681,-1.17278 0.10329,-0.27194 0.19677,-1.01967 0.20775,-1.66163 0.0372,-2.17608 -0.7812,-2.95757 -3.07058,-2.93215 -1.5658,0.0174 -2.86571,0.42497 -3.70583,1.16195 -0.83576,0.73316 -1.47503,0.68347 -2.40769,-0.18713 l -0.75085,-0.70089 -0.0892,-2.2637 -0.0891,-2.26369 -0.90137,-0.82904 c -0.49575,-0.45597 -1.41843,-1.10232 -2.05039,-1.43634 -0.63197,-0.33402 -1.41258,-0.83539 -1.7347,-1.11416 -0.48154,-0.41674 -0.75096,-0.50698 -1.51551,-0.50762 -0.53229,-3.6e-4 -1.46344,-0.18959 -2.17791,-0.4424 -0.69181,-0.2448 -1.65422,-0.4433 -2.15935,-0.44539 l -0.91129,-0.004 -0.0971,-1.0722 c -0.0553,-0.61085 -0.25778,-1.34475 -0.4705,-1.70562 -0.20535,-0.34837 -0.37337,-0.8569 -0.37337,-1.13006 0,-0.78328 -0.64701,-3.112 -1.12838,-4.0613 -0.2412,-0.47565 -0.81102,-1.34443 -1.26628,-1.93062 -1.03149,-1.32816 -1.15149,-1.75502 -0.6748,-2.4004 0.49164,-0.6656 2.16065,-4.02179 4.04499,-8.13401 2.65196,-5.78739 3.9471,-8.17553 5.25693,-9.69339 0.65091,-0.75428 1.42042,-1.48937 1.71002,-1.63353 0.71863,-0.35772 1.79303,-0.2999 2.75523,0.14826 0.44128,0.20554 1.05179,0.37547 1.35669,0.37762 1.17364,0.008 3.09426,-2.37329 3.09895,-3.842744 0.002,-0.629411 -0.79949,-1.983793 -1.5007,-2.535886 -1.10963,-0.87367 -2.28767,-0.92837 -4.91618,-0.228276 -0.73547,0.19589 -1.67237,0.358054 -2.08199,0.360363 -0.62841,0.0036 -0.82341,0.09958 -1.24807,0.614654 -0.29929,0.363014 -0.82851,0.721071 -1.30562,0.883351 -0.5452,0.185437 -1.00004,0.51885 -1.41923,1.040345 -1.73429,2.157513 -7.31547,7.534723 -10.88314,10.485403 -4.52226,3.74019 -6.77643,5.83397 -7.75584,7.20402 -0.47694,0.66715 -0.80178,0.96525 -0.98063,0.89989 -0.14709,-0.0537 -0.71167,-0.14003 -1.25461,-0.19174 -1.81713,-0.17307 -3.63794,1.01232 -4.47927,2.91609 -0.18966,0.42918 -0.41484,0.78032 -0.50039,0.78032 -0.0856,0 -0.64927,-0.1266 -1.2527,-0.28134 -0.76493,-0.19615 -1.51162,-0.251 -2.46596,-0.18113 -2.03211,0.14878 -2.1327,0.14905 -3.77693,0.0102 -1.23228,-0.10404 -1.80059,-0.0598 -3.03102,0.23617 -0.83291,0.20032 -2.41147,0.40899 -3.50792,0.46372 l -1.99355,0.0995 -1.67957,-3.2521 c -0.92376,-1.78865 -2.14452,-4.01503 -2.71279,-4.94751 -2.01207,-3.3016 -2.73685,-5.46372 -2.52182,-7.52295 0.15416,-1.47638 0.44985,-1.96207 2.42785,-3.98802 2.76326,-2.830228 3.18151,-3.747035 2.22726,-4.882176 -0.47563,-0.565789 -1.07825,-0.818653 -2.40115,-1.007537 -0.44128,-0.06301 -1.26399,-0.269392 -1.82824,-0.458636 -1.42378,-0.477524 -2.25227,-0.444438 -3.09458,0.123581 z"
       id="path4922"
       inkscape:connector-curvature="0" /><g
       style="fill:#ffffff;fill-opacity:1;stroke:#ffffff;stroke-opacity:1"
       id="g74"
       transform="translate(0,-12.8)"><g
         transform="matrix(1,0,0,-1,400.571,105.517)"
         style="font-variant:normal;font-weight:bold;font-size:100px;font-family:'Myriad Pro';-inkscape-font-specification:MyriadPro-BoldIt;writing-mode:lr-tb;fill:#ffffff;fill-opacity:1;fill-rule:nonzero;stroke:#ffffff;stroke-opacity:1"
         id="text76"><path
           d="m 6.6,0 15.3,0 0,-27.1 24.2,0 0,-12.4 -24.2,0 0,-15.4 25.9,0 0,-12.5 -41.2,0 0,67.4 z"
           style=""
           id="path3376" /><path
           d="m 57.699998,0 15.1,0 0,-26.5 4.6,0 c 6.2,0.1 9.1,2.4 10.9,10.8 2,8.3 3.6,13.7 4.7,15.7 L 108.6,0 c -1.3,-2.6 -3.4,-11.4 -5.5,-19 -1.7,-6.2 -4.300002,-10.7 -9.000002,-12.6 l 0,-0.3 C 99.899998,-34 106,-39.9 106,-48.5 c 0,-6.2 -2.2,-10.9 -6.200002,-14.1 -4.8,-3.8 -11.8,-5.3 -21.8,-5.3 -8.1,0 -15.4,0.6 -20.3,1.4 l 0,66.5 z m 15.1,-56.1 c 1.1,-0.2 3.2,-0.5 6.9,-0.5 7,0.1 11.2,3.2 11.2,9.4 0,5.9 -4.5,9.7 -12.1,9.7 l -6,0 0,-18.6 z"
           style=""
           id="path3378" /><path
           d="m 163.2,-13.8 c -3,1.2 -8.1,2.2 -12.7,2.2 -13.6,0 -21.6,-8.5 -21.6,-22 0,-15 9.4,-22.3 21.5,-22.3 5.4,0 9.7,1.2 12.8,2.5 l 3.1,-12.1 c -2.7,-1.4 -8.7,-3 -16.6,-3 -20.4,0 -36.8,12.8 -36.8,35.8 0,19.2 12,33.8 35.3,33.8 8.2,0 14.5,-1.6 17.3,-3 l -2.3,-11.9 z"
           style=""
           id="path3380" /><path
           d="m 205.69688,0 15.3,0 0,-54.6 18.4,0 0,-12.8 -51.8,0 0,12.8 18.1,0 0,54.6 z"
           style=""
           id="path3382" /><path
           d="m 280.79629,-19.6 c 0.2,-1.1 0.5,-3.4 0.5,-6 0,-12.1 -6,-24.4 -21.8,-24.4 -17,0 -24.7,13.7 -24.7,26.1 0,15.3 9.5,25 26.1,25 6.6,0 12.7,-1.1 17.7,-3.1 l -2,-10.3 c -4.1,1.3 -8.3,2 -13.5,2 -7.1,0 -13.3,-3 -13.8,-9.3 l 31.5,0 z m -31.6,-10.4 c 0.4,-4.1 3,-9.9 9.4,-9.9 7,0 8.6,6.2 8.6,9.9 l -18,0 z"
           style=""
           id="path3384" /><path
           d="m 328.49628,-28.9 c 0,-11.5 -5.2,-21.1 -21.5,-21.1 -8.9,0 -15.6,2.4 -19,4.3 l 2.8,9.8 c 3.2,-2 8.5,-3.7 13.5,-3.7 7.5,0 8.9,3.7 8.9,6.3 l 0,0.7 c -17.3,-0.1 -28.7,6 -28.7,18.7 0,7.8 5.9,15 15.8,15 5.8,0 10.8,-2.1 14,-6 l 0.3,0 0.9,4.9 13.7,0 c -0.5,-2.7 -0.7,-7.2 -0.7,-11.9 l 0,-17 z m -14.8,11.1 c 0,0.9 -0.1,1.8 -0.3,2.6 -1,3.1 -4.1,5.6 -7.9,5.6 -3.4,0 -6,-1.9 -6,-5.8 0,-5.9 6.2,-7.8 14.2,-7.7 l 0,5.3 z"
           style=""
           id="path3386" /><path
           d="m 343.59374,0 14.8,0 0,-28.5 c 0,-1.2 0.1,-2.6 0.6,-3.8 0.9,-2.5 3.2,-5.5 7.1,-5.5 4.8,0 7,4.2 7,10.4 l 0,27.4 14.8,0 0,-28.6 c 0,-1.2 0.2,-2.8 0.6,-3.9 1,-2.9 3.5,-5.3 7,-5.3 4.9,0 7.2,4.1 7.2,11.2 l 0,26.6 14.8,0 0,-28.8 c 0,-14.6 -7.1,-21.2 -16.5,-21.2 -3.6,0 -6.6,0.8 -9.3,2.4 -2.3,1.4 -4.5,3.3 -6.3,5.9 l -0.2,0 c -2.1,-5.1 -7.1,-8.3 -13.4,-8.3 -8.4,0 -12.7,4.6 -14.8,7.7 l -0.3,0 -0.7,-6.6 -12.8,0 c 0.2,4.3 0.4,9.5 0.4,15.6 l 0,33.3 z"
           style=""
           id="path3388" /><path
           d="m 484.49316,0 0,-15.5 7.8,0 0,-11.4 -7.8,0 0,-38.1 -18.6,0 -24.6,39.6 0,9.9 28.8,0 0,15.5 14.4,0 z m -29,-26.9 0,-0.2 8.7,-14.2 c 2.2,-4.1 3.9,-7.9 6,-12.1 l 0.4,0 c -0.3,4.2 -0.5,8.2 -0.5,12.1 l 0,14.4 -14.6,0 z"
           style=""
           id="path3390" /><path
           d="m 538.7918,-65.9 c -1.5,-0.1 -3.3,-0.1 -6.1,0.1 -10.2,0.5 -18.6,3.7 -25.1,9.6 -7,6.5 -11.5,16.7 -11.5,28.9 0,15.5 8.5,28.4 25.8,28.4 14.1,0 24,-10.6 24,-23.5 0,-13.5 -9.2,-21.2 -20.1,-21.2 -6.1,0 -10.6,1.9 -13.8,5.2 l -0.3,0 c 1.7,-7.6 7.7,-14.5 21.2,-15.6 2.4,-0.2 4.2,-0.2 5.9,-0.2 l 0,-11.7 z m -17.1,55.8 c -6.9,0 -10.2,-6.2 -10.5,-13.1 0,-1.8 0.2,-3 0.6,-3.8 1.5,-3.3 4.9,-5.8 9,-5.8 6.5,0 9.7,5.2 9.7,11.2 0,6.6 -3.4,11.5 -8.7,11.5 l -0.1,0 z"
           style=""
           id="path3392" /><path
           d="m 592.89031,-65.9 c -1.5,-0.1 -3.3,-0.1 -6.1,0.1 -10.2,0.5 -18.6,3.7 -25.1,9.6 -7,6.5 -11.5,16.7 -11.5,28.9 0,15.5 8.5,28.4 25.8,28.4 14.1,0 24,-10.6 24,-23.5 0,-13.5 -9.2,-21.2 -20.1,-21.2 -6.1,0 -10.6,1.9 -13.8,5.2 l -0.3,0 c 1.7,-7.6 7.7,-14.5 21.2,-15.6 2.4,-0.2 4.2,-0.2 5.9,-0.2 l 0,-11.7 z m -17.1,55.8 c -6.9,0 -10.2,-6.2 -10.5,-13.1 0,-1.8 0.2,-3 0.6,-3.8 1.5,-3.3 4.9,-5.8 9,-5.8 6.5,0 9.7,5.2 9.7,11.2 0,6.6 -3.4,11.5 -8.7,11.5 l -0.1,0 z"
           style=""
           id="path3394" /><path
           d="m 610.28894,0.9 c 1.7,0.1 4.3,0.2 6.9,0 10.1,-0.4 18.6,-3.5 24.8,-9.1 7.1,-6.5 11.4,-16.4 11.4,-29.9 0,-15.2 -7.9,-28 -24.6,-28 -14.3,0 -24.5,10.7 -24.5,23.4 0,12.6 9.3,20.3 20.3,20.3 5.9,0 10.1,-1.7 13,-4.7 l 0.3,0.1 c -1.2,4.9 -4,9.1 -8.2,12 -3.5,2.4 -8.2,3.7 -12.8,4 -3,0.2 -4.7,0.2 -6.6,0 l 0,11.9 z m 18.1,-55.9 c 6.9,0 9.5,6.8 9.5,13.7 0,1.9 -0.3,2.9 -0.8,3.8 -1.4,2.3 -4.3,4.3 -8.4,4.3 -6.2,0 -9.2,-4.8 -9.2,-10.4 -0.1,-6.8 3.7,-11.4 8.8,-11.4 l 0.1,0 z"
           style=""
           id="path3396" /></g><g
         transform="matrix(1,0,0,-1,453.6319,22.235)"
         style="font-variant:normal;font-weight:bold;font-size:72px;font-family:'Myriad Pro';-inkscape-font-specification:MyriadPro-BoldIt;writing-mode:lr-tb;fill:#ffffff;fill-opacity:1;fill-rule:nonzero;stroke:#ffffff;stroke-opacity:1"
         id="text80"><path
           d="m 2.88,-2.232 c 2.736,1.512 8.208,3.024 13.752,3.024 13.32,0 19.584,-6.984 19.584,-15.12 0,-6.84 -4.032,-11.304 -12.6,-14.472 -6.264,-2.376 -9,-3.744 -9,-6.84 0,-2.52 2.304,-4.68 7.056,-4.68 4.752,0 8.208,1.368 10.152,2.304 l 2.448,-8.856 c -2.88,-1.296 -6.912,-2.448 -12.384,-2.448 -11.448,0 -18.36,6.336 -18.36,14.616 0,7.056 5.256,11.52 13.32,14.328 5.832,2.088 8.136,3.816 8.136,6.84 0,3.168 -2.664,5.256 -7.704,5.256 -4.68,0 -9.216,-1.512 -12.168,-3.024 L 2.88,-2.232 Z"
           style=""
           id="path3399" /><path
           d="m 71.207484,-20.808 c 0,-8.28 -3.744,-15.192 -15.48,-15.192 -6.408,0 -11.232,1.728 -13.68,3.096 l 2.016,7.056 c 2.304,-1.44 6.12,-2.664 9.72,-2.664 5.4,0 6.408,2.664 6.408,4.536 l 0,0.504 c -12.456,-0.072 -20.664,4.32 -20.664,13.464 0,5.616 4.248,10.8 11.376,10.8 4.176,0 7.776,-1.512 10.08,-4.32 l 0.216,0 0.648,3.528 9.864,0 c -0.36,-1.944 -0.504,-5.184 -0.504,-8.568 l 0,-12.24 z m -10.656,7.992 c 0,0.648 -0.072,1.296 -0.216,1.872 -0.72,2.232 -2.952,4.032 -5.688,4.032 -2.448,0 -4.32,-1.368 -4.32,-4.176 0,-4.248 4.464,-5.616 10.224,-5.544 l 0,3.816 z"
           style=""
           id="path3401" /><path
           d="m 82.078073,0 10.944,0 0,-20.304 c 0,-1.008 0.144,-2.016 0.432,-2.736 0.72,-2.016 2.52,-4.104 5.544,-4.104 3.959997,0 5.543997,3.096 5.543997,7.632 l 0,19.512 10.944,0 0,-20.88 c 0,-10.368 -5.4,-15.12 -12.6,-15.12 -5.831997,0 -9.431997,3.384 -10.871997,5.616 l -0.216,0 -0.504,-4.824 -9.504,0 c 0.144,3.096 0.288,6.84 0.288,11.232 l 0,23.976 z"
           style=""
           id="path3403" /><path
           d="m 136.22041,0 11.016,0 0,-19.512 17.424,0 0,-8.928 -17.424,0 0,-11.088 18.648,0 0,-9 -29.664,0 0,48.528 z"
           style=""
           id="path3405" /><path
           d="m 171.64362,0 10.944,0 0,-17.856 c 0,-0.864 0.072,-1.728 0.216,-2.448 0.72,-3.384 3.456,-5.544 7.488,-5.544 1.224,0 2.16,0.144 2.952,0.36 l 0,-10.368 c -0.792,-0.144 -1.296,-0.144 -2.304,-0.144 -3.384,0 -7.704,2.16 -9.504,7.272 l -0.288,0 -0.36,-6.48 -9.432,0 c 0.144,3.024 0.288,6.408 0.288,11.592 l 0,23.616 z"
           style=""
           id="path3407" /><path
           d="m 227.01231,-20.808 c 0,-8.28 -3.744,-15.192 -15.48,-15.192 -6.408,0 -11.232,1.728 -13.68,3.096 l 2.016,7.056 c 2.304,-1.44 6.12,-2.664 9.72,-2.664 5.4,0 6.408,2.664 6.408,4.536 l 0,0.504 c -12.456,-0.072 -20.664,4.32 -20.664,13.464 0,5.616 4.248,10.8 11.376,10.8 4.176,0 7.776,-1.512 10.08,-4.32 l 0.216,0 0.648,3.528 9.864,0 c -0.36,-1.944 -0.504,-5.184 -0.504,-8.568 l 0,-12.24 z m -10.656,7.992 c 0,0.648 -0.072,1.296 -0.216,1.872 -0.72,2.232 -2.952,4.032 -5.688,4.032 -2.448,0 -4.32,-1.368 -4.32,-4.176 0,-4.248 4.464,-5.616 10.224,-5.544 l 0,3.816 z"
           style=""
           id="path3409" /><path
           d="m 237.88242,0 10.944,0 0,-20.304 c 0,-1.008 0.144,-2.016 0.432,-2.736 0.72,-2.016 2.52,-4.104 5.544,-4.104 3.96,0 5.544,3.096 5.544,7.632 l 0,19.512 10.944,0 0,-20.88 c 0,-10.368 -5.4,-15.12 -12.6,-15.12 -5.832,0 -9.432,3.384 -10.872,5.616 l -0.216,0 -0.504,-4.824 -9.504,0 c 0.144,3.096 0.288,6.84 0.288,11.232 l 0,23.976 z"
           style=""
           id="path3411" /><path
           d="m 303.54563,-9 c -1.656,0.72 -3.672,1.152 -6.264,1.152 -5.328,0 -9.648,-3.384 -9.648,-9.864 -0.072,-5.76 3.672,-9.864 9.432,-9.864 2.88,0 4.824,0.504 6.12,1.08 l 1.728,-8.136 c -2.304,-0.864 -5.472,-1.368 -8.352,-1.368 -13.104,0 -20.16,8.424 -20.16,18.72 0,11.088 7.272,18.072 18.648,18.072 4.176,0 7.848,-0.792 9.792,-1.656 L 303.54563,-9 Z"
           style=""
           id="path3413" /><path
           d="m 320.89682,0 0,-35.208 -10.944,0 0,35.208 10.944,0 z m -5.472,-50.544 c -3.528,0 -5.832,2.376 -5.76,5.544 -0.072,3.024 2.232,5.472 5.688,5.472 3.6,0 5.904,-2.448 5.904,-5.472 -0.072,-3.168 -2.304,-5.544 -5.832,-5.544 z"
           style=""
           id="path3415" /><path
           d="m 327.01681,-1.728 c 2.664,1.44 6.768,2.52 11.376,2.52 10.08,0 15.264,-4.896 15.264,-11.448 -0.072,-5.184 -2.88,-8.568 -9.576,-10.872 -4.32,-1.512 -5.688,-2.376 -5.688,-4.032 0,-1.8 1.512,-2.88 4.176,-2.88 3.024,0 6.048,1.152 7.632,2.016 l 1.944,-7.56 c -2.16,-1.08 -5.832,-2.016 -9.936,-2.016 -8.712,0 -14.328,4.968 -14.328,11.592 -0.072,4.104 2.736,8.064 10.008,10.512 4.104,1.368 5.184,2.232 5.184,4.032 0,1.8 -1.368,2.952 -4.68,2.952 -3.24,0 -7.416,-1.44 -9.432,-2.664 l -1.944,7.848 z"
           style=""
           id="path3417" /><path
           d="m 384.11149,-9 c -1.656,0.72 -3.672,1.152 -6.264,1.152 -5.328,0 -9.648,-3.384 -9.648,-9.864 -0.072,-5.76 3.672,-9.864 9.432,-9.864 2.88,0 4.824,0.504 6.12,1.08 l 1.728,-8.136 c -2.304,-0.864 -5.472,-1.368 -8.352,-1.368 -13.104,0 -20.16,8.424 -20.16,18.72 0,11.088 7.272,18.072 18.648,18.072 4.176,0 7.848,-0.792 9.792,-1.656 L 384.11149,-9 Z"
           style=""
           id="path3419" /><path
           d="m 406.36008,-36 c -11.304,0 -18.792,7.272 -18.792,18.648 0,11.376 7.92,18.144 18.216,18.144 9.432,0 18.576,-5.904 18.576,-18.792 0,-10.584 -7.2,-18 -18,-18 z m -0.288,7.776 c 4.968,0 6.984,5.328 6.984,10.584 0,6.336 -2.736,10.584 -6.984,10.584 -4.68,0 -7.2,-4.536 -7.2,-10.584 0,-5.184 1.944,-10.584 7.2,-10.584 z"
           style=""
           id="path3421" /><path
           d="m 431.84737,7.92 c 3.456,-5.616 6.696,-13.176 9.072,-20.52 l -11.16,0.72 c -1.008,6.552 -2.952,14.04 -5.184,20.448 l 7.272,-0.648 z"
           style=""
           id="path3423" /><path
           d="m 495.1345,-9.936 c -2.16,0.864 -5.832,1.584 -9.144,1.584 -9.792,0 -15.552,-6.12 -15.552,-15.84 0,-10.8 6.768,-16.056 15.48,-16.056 3.888,0 6.984,0.864 9.216,1.8 l 2.232,-8.712 c -1.944,-1.008 -6.264,-2.16 -11.952,-2.16 -14.688,0 -26.496,9.216 -26.496,25.776 0,13.824 8.64,24.336 25.416,24.336 5.904,0 10.44,-1.152 12.456,-2.16 l -1.656,-8.568 z"
           style=""
           id="path3425" /><path
           d="m 528.83002,-12.456 3.744,12.456 11.808,0 -15.048,-48.528 -14.4,0 -14.832,48.528 11.376,0 3.456,-12.456 13.896,0 z m -12.312,-8.208 2.88,-10.296 c 0.792,-2.808 1.512,-6.48 2.232,-9.36 l 0.144,0 c 0.72,2.88 1.584,6.48 2.448,9.36 l 3.024,10.296 -10.728,0 z"
           style=""
           id="path3427" /></g><g
         transform="scale(1,-1)"
         style="font-variant:normal;font-weight:bold;font-size:72px;line-height:125%;font-family:'Myriad Pro';-inkscape-font-specification:MyriadPro-BoldIt;writing-mode:lr-tb;fill:#ffffff;fill-opacity:1;fill-rule:nonzero;stroke:#ffffff;stroke-width:1;stroke-opacity:1"
         id="text80-6"><path
           d="m 558.43288,-225.41205 c -0.128,-3.456 0.32,-8.96 1.344,-14.336 l 3.136,-16.128 c -2.112,-0.704 -5.376,-1.216 -8.32,-1.216 -13.504,0 -21.44,11.392 -21.44,22.144 0,5.888 3.456,10.24 8.896,10.24 4.416,0 8.64,-2.304 12.032,-8.704 l 0.128,0 c -0.384,3.2 -0.704,6.144 -0.704,8 l 4.928,0 z m -3.264,-17.664 c -1.536,8.256 -6.784,14.016 -11.2,14.016 -4.096,0 -5.312,-3.392 -5.312,-6.848 0.064,-8.576 6.592,-16.96 14.592,-16.96 1.792,0 2.944,0.256 3.712,0.448 l -1.792,9.344 z"
           style="font-style:italic;font-variant:normal;font-weight:normal;font-stretch:normal;font-size:64px;line-height:125%;font-family:'Myriad Pro';-inkscape-font-specification:'Myriad Pro, Italic';text-align:start;writing-mode:lr-tb;text-anchor:start;stroke-width:1"
           id="path3430" /><path
           d="m 571.64788,-225.41205 2.816,-15.04 c 1.408,-7.68 6.784,-12.224 10.56,-12.224 3.648,0 4.864,2.304 4.864,5.44 0,1.28 -0.192,2.752 -0.448,3.968 l -3.392,17.856 5.312,0 3.456,-18.048 c 0.32,-1.664 0.576,-3.648 0.576,-4.992 0,-6.528 -4.16,-8.64 -7.872,-8.64 -4.544,0 -8.704,2.432 -11.456,6.784 l -0.128,0 0.768,-6.08 -4.736,0 c -0.384,2.56 -0.768,5.568 -1.472,9.024 l -4.16,21.952 5.312,0 z"
           style="font-style:italic;font-variant:normal;font-weight:normal;font-stretch:normal;font-size:64px;line-height:125%;font-family:'Myriad Pro';-inkscape-font-specification:'Myriad Pro, Italic';text-align:start;writing-mode:lr-tb;text-anchor:start;stroke-width:1"
           id="path3432" /><path
           d="m 628.10888,-270.85205 -2.752,14.848 c -1.344,-0.64 -3.52,-1.088 -5.504,-1.088 -10.944,0 -19.136,10.112 -19.136,21.12 0,6.336 3.264,11.264 9.28,11.264 4.416,0 8.32,-2.432 11.136,-6.848 l 0.128,0 -0.832,6.144 4.864,0 c 0.192,-3.008 0.704,-6.592 1.344,-9.792 l 6.784,-35.648 -5.312,0 z m -5.696,30.144 c -1.344,6.976 -6.272,11.648 -10.368,11.648 -4.544,0 -5.824,-3.904 -5.824,-7.616 0,-8.256 5.76,-16.128 13.184,-16.128 2.24,0 4.032,0.576 5.12,1.28 l -2.112,10.816 z"
           style="font-style:italic;font-variant:normal;font-weight:normal;font-stretch:normal;font-size:64px;line-height:125%;font-family:'Myriad Pro';-inkscape-font-specification:'Myriad Pro, Italic';text-align:start;writing-mode:lr-tb;text-anchor:start;stroke-width:1"
           id="path3434" /><path
           d="m 646.99088,-256.38805 6.208,29.12 c 0.064,0.512 0.064,0.896 -0.192,1.408 -1.664,3.008 -3.904,5.504 -5.952,7.104 -2.112,1.664 -4.352,2.496 -5.696,3.008 l 1.28,4.544 c 1.792,-0.384 5.568,-1.856 9.024,-5.376 4.224,-4.096 7.36,-9.536 10.688,-16.256 l 11.584,-23.552 -5.632,0 -7.872,17.28 c -1.6,3.392 -2.496,5.568 -3.328,7.552 l -0.128,0 c -0.32,-2.304 -0.704,-4.608 -1.408,-8.192 l -3.072,-16.64 -5.504,0 z"
           style="font-style:italic;font-variant:normal;font-weight:normal;font-stretch:normal;font-size:64px;line-height:125%;font-family:'Myriad Pro';-inkscape-font-specification:'Myriad Pro, Italic';text-align:start;writing-mode:lr-tb;text-anchor:start;stroke-width:1"
           id="path3436" /><path
           d="m 695.02888,-231.17205 c -1.92,1.024 -4.672,2.176 -8.32,2.176 -3.2,0 -5.696,-1.408 -6.912,-4.16 -0.704,-1.664 -0.896,-4.544 -0.64,-5.888 11.456,0.192 20.608,-1.984 20.608,-10.112 0,-4.416 -3.2,-7.936 -9.088,-7.936 -9.984,0 -16.896,10.56 -16.896,19.904 0,6.848 3.584,12.48 11.776,12.48 4.16,0 7.936,-1.152 10.24,-2.496 l -0.768,-3.968 z m -0.384,-17.792 c 0,4.8 -6.528,5.888 -14.848,5.824 1.28,-4.864 5.056,-9.792 10.112,-9.792 2.816,0 4.736,1.408 4.736,3.904 l 0,0.064 z"
           style="font-style:italic;font-variant:normal;font-weight:normal;font-stretch:normal;font-size:64px;line-height:125%;font-family:'Myriad Pro';-inkscape-font-specification:'Myriad Pro, Italic';text-align:start;writing-mode:lr-tb;text-anchor:start;stroke-width:1"
           id="path3438" /><path
           d="m 710.58888,-262.08405 -1.088,5.696 -4.416,0 -0.832,4.16 4.48,0 -3.072,15.68 c -0.448,2.24 -0.64,4.032 -0.64,5.824 0,3.136 1.792,6.016 6.528,6.016 1.536,0 3.136,-0.256 4.096,-0.576 l 0.256,-4.224 c -0.704,0.192 -1.6,0.256 -2.496,0.256 -2.048,0 -2.944,-1.152 -2.944,-3.008 0,-1.6 0.256,-3.2 0.576,-4.928 l 2.88,-15.04 7.424,0 0.832,-4.16 -7.424,0 1.408,-7.424 -5.568,1.728 z"
           style="font-style:italic;font-variant:normal;font-weight:normal;font-stretch:normal;font-size:64px;line-height:125%;font-family:'Myriad Pro';-inkscape-font-specification:'Myriad Pro, Italic';text-align:start;writing-mode:lr-tb;text-anchor:start;stroke-width:1"
           id="path3440" /><path
           d="m 739.39788,-225.41205 5.952,-30.976 -5.312,0 -5.952,30.976 5.312,0 z m 4.672,-36.288 c 2.048,0 3.52,-1.472 3.584,-3.584 0,-1.92 -1.216,-3.328 -3.136,-3.328 -1.92,0 -3.456,1.536 -3.52,3.584 0,1.92 1.216,3.328 3.008,3.328 l 0.064,0 z"
           style="font-style:italic;font-variant:normal;font-weight:normal;font-stretch:normal;font-size:64px;line-height:125%;font-family:'Myriad Pro';-inkscape-font-specification:'Myriad Pro, Italic';text-align:start;writing-mode:lr-tb;text-anchor:start;stroke-width:1"
           id="path3442" /><path
           d="m 756.83888,-262.08405 -1.088,5.696 -4.416,0 -0.832,4.16 4.48,0 -3.072,15.68 c -0.448,2.24 -0.64,4.032 -0.64,5.824 0,3.136 1.792,6.016 6.528,6.016 1.536,0 3.136,-0.256 4.096,-0.576 l 0.256,-4.224 c -0.704,0.192 -1.6,0.256 -2.496,0.256 -2.048,0 -2.944,-1.152 -2.944,-3.008 0,-1.6 0.256,-3.2 0.576,-4.928 l 2.88,-15.04 7.424,0 0.832,-4.16 -7.424,0 1.408,-7.424 -5.568,1.728 z"
           style="font-style:italic;font-variant:normal;font-weight:normal;font-stretch:normal;font-size:64px;line-height:125%;font-family:'Myriad Pro';-inkscape-font-specification:'Myriad Pro, Italic';text-align:start;writing-mode:lr-tb;text-anchor:start;stroke-width:1"
           id="path3444" /><path
           d="m 785.51988,-225.41205 2.88,-15.552 c 1.216,-6.592 6.016,-11.712 9.92,-11.712 3.904,0 4.608,2.688 4.608,5.312 0,1.216 -0.128,2.432 -0.384,3.776 l -3.456,18.176 5.12,0 3.008,-15.872 c 1.28,-6.912 5.824,-11.392 9.664,-11.392 3.456,0 4.672,2.112 4.672,5.376 0,1.28 -0.192,2.88 -0.448,4.032 l -3.328,17.856 5.184,0 3.456,-18.304 c 0.32,-1.728 0.512,-3.776 0.512,-5.248 0,-5.824 -3.904,-8.128 -7.488,-8.128 -4.672,0.064 -8.64,2.432 -11.392,6.912 -0.256,-3.904 -2.496,-6.912 -7.232,-6.912 -4.096,0 -8,2.24 -10.88,6.528 l -0.192,0 0.832,-5.824 -4.672,0 c -0.32,2.56 -0.768,5.568 -1.408,9.024 l -4.16,21.952 5.184,0 z"
           style="font-style:italic;font-variant:normal;font-weight:normal;font-stretch:normal;font-size:64px;line-height:125%;font-family:'Myriad Pro';-inkscape-font-specification:'Myriad Pro, Italic';text-align:start;writing-mode:lr-tb;text-anchor:start;stroke-width:1"
           id="path3446" /><path
           d="m 849.68588,-257.09205 c -10.048,0 -17.152,9.472 -17.152,19.648 0,6.976 4.352,12.736 12.096,12.736 10.368,0 17.152,-9.92 17.152,-19.456 0,-6.592 -3.712,-12.928 -12.096,-12.928 z m -0.576,4.224 c 5.568,0 7.232,5.056 7.232,8.64 0,7.232 -4.736,15.296 -11.008,15.296 -4.544,0 -7.296,-3.648 -7.296,-8.704 -0.064,-7.104 4.416,-15.232 11.072,-15.232 z"
           style="font-style:italic;font-variant:normal;font-weight:normal;font-stretch:normal;font-size:64px;line-height:125%;font-family:'Myriad Pro';-inkscape-font-specification:'Myriad Pro, Italic';text-align:start;writing-mode:lr-tb;text-anchor:start;stroke-width:1"
           id="path3448" /><path
           d="m 866.43288,-256.38805 5.376,30.976 5.248,0 17.216,-30.976 -5.824,0 -9.472,18.048 c -1.792,3.52 -2.624,5.568 -3.264,7.232 l -0.192,0 c -0.128,-1.728 -0.512,-4.096 -0.96,-7.616 l -2.688,-17.664 -5.44,0 z"
           style="font-style:italic;font-variant:normal;font-weight:normal;font-stretch:normal;font-size:64px;line-height:125%;font-family:'Myriad Pro';-inkscape-font-specification:'Myriad Pro, Italic';text-align:start;writing-mode:lr-tb;text-anchor:start;stroke-width:1"
           id="path3450" /><path
           d="m 915.15388,-231.17205 c -1.92,1.024 -4.672,2.176 -8.32,2.176 -3.2,0 -5.696,-1.408 -6.912,-4.16 -0.704,-1.664 -0.896,-4.544 -0.64,-5.888 11.456,0.192 20.608,-1.984 20.608,-10.112 0,-4.416 -3.2,-7.936 -9.088,-7.936 -9.984,0 -16.896,10.56 -16.896,19.904 0,6.848 3.584,12.48 11.776,12.48 4.16,0 7.936,-1.152 10.24,-2.496 l -0.768,-3.968 z m -0.384,-17.792 c 0,4.8 -6.528,5.888 -14.848,5.824 1.28,-4.864 5.056,-9.792 10.112,-9.792 2.816,0 4.736,1.408 4.736,3.904 l 0,0.064 z"
           style="font-style:italic;font-variant:normal;font-weight:normal;font-stretch:normal;font-size:64px;line-height:125%;font-family:'Myriad Pro';-inkscape-font-specification:'Myriad Pro, Italic';text-align:start;writing-mode:lr-tb;text-anchor:start;stroke-width:1"
           id="path3452" /><path
           d="m 921.36988,-226.88405 c 1.408,1.088 4.352,2.112 7.68,2.176 6.528,0 11.84,-3.712 11.84,-10.24 0,-3.456 -2.368,-6.144 -5.824,-8.128 -2.752,-1.536 -4.224,-2.944 -4.224,-5.184 0,-2.688 2.304,-4.672 5.504,-4.672 2.304,0 4.288,0.768 5.376,1.408 l 1.472,-4.032 c -1.152,-0.768 -3.648,-1.536 -6.464,-1.536 -6.528,0 -11.2,4.16 -11.2,9.6 0,3.136 1.984,5.888 5.568,7.872 3.2,1.792 4.288,3.264 4.288,5.696 0,2.752 -2.304,5.056 -5.888,5.056 -2.496,0 -5.184,-1.024 -6.656,-1.92 l -1.472,3.904 z"
           style="font-style:italic;font-variant:normal;font-weight:normal;font-stretch:normal;font-size:64px;line-height:125%;font-family:'Myriad Pro';-inkscape-font-specification:'Myriad Pro, Italic';text-align:start;writing-mode:lr-tb;text-anchor:start;stroke-width:1"
           id="path3454" /></g></g><path
       inkscape:connector-curvature="0"
       id="path84"
       style="fill:#ffffff;fill-opacity:1;fill-rule:nonzero;stroke:#ffffff;stroke-width:0.1;stroke-opacity:1"
       d="m 395.225,196.674 674.995,0" /><path
       inkscape:connector-curvature="0"
       id="path86"
       style="fill:#ffffff;fill-opacity:1;fill-rule:nonzero;stroke:#ffffff;stroke-width:0.1;stroke-opacity:1"
       d="m 395.225,174.674 674.995,0 0,12 -674.995,0 0,-12 z" /></g></svg>