<?xml version="1.0" encoding="UTF-8" standalone="no"?>
<!-- Created with Inkscape (http://www.inkscape.org/) -->

<svg
   xmlns:osb="http://www.openswatchbook.org/uri/2009/osb"
   xmlns:dc="http://purl.org/dc/elements/1.1/"
   xmlns:cc="http://creativecommons.org/ns#"
   xmlns:rdf="http://www.w3.org/1999/02/22-rdf-syntax-ns#"
   xmlns:svg="http://www.w3.org/2000/svg"
   xmlns="http://www.w3.org/2000/svg"
   xmlns:sodipodi="http://sodipodi.sourceforge.net/DTD/sodipodi-0.dtd"
   xmlns:inkscape="http://www.inkscape.org/namespaces/inkscape"
   id="svg2"
   version="1.1"
   inkscape:version="0.91 r13725"
   xml:space="preserve"
   width="1337.775"
   height="889.9375"
   viewBox="0 0 1337.775 889.9375"
   sodipodi:docname="galileorobotics4669logoe.svg"
   inkscape:export-filename="C:\Users\dexti_000\Downloads\FRC4669\galileorobotics4669logoe.png"
   inkscape:export-xdpi="300"
   inkscape:export-ydpi="300"><metadata
     id="metadata8"><rdf:RDF><cc:Work
         rdf:about=""><dc:format>image/svg+xml</dc:format><dc:type
           rdf:resource="http://purl.org/dc/dcmitype/StillImage" /><dc:title></dc:title></cc:Work></rdf:RDF></metadata><defs
     id="defs6"><linearGradient
       id="linearGradient4214"
       osb:paint="solid"><stop
         style="stop-color:#ffffff;stop-opacity:1;"
         offset="0"
         id="stop4216" /></linearGradient><clipPath
       clipPathUnits="userSpaceOnUse"
       id="clipPath54"><path
         d="m 3176.2,912.691 -1675.9,0 c -6.03,11.539 -11.84,23.231 -17.4,35.039 l 0,804.54 c 2.5,5.29 5.03,10.54 7.62,15.78 l 1695.47,0 c 2.59,-5.24 5.13,-10.52 7.63,-15.81 l 0,-804.478 c -5.56,-11.813 -11.39,-23.532 -17.42,-35.071"
         id="path56"
         inkscape:connector-curvature="0" /></clipPath><clipPath
       clipPathUnits="userSpaceOnUse"
       id="clipPath66"><path
         d="m 3193.62,912.691 -17.42,0 c 6.03,11.539 11.86,23.258 17.42,35.071 l 0,-35.071 m -1693.32,0 -17.4,0 0,35.039 c 5.56,-11.808 11.37,-23.5 17.4,-35.039 m 1693.32,839.549 c -2.5,5.29 -5.04,10.57 -7.63,15.81 l 7.63,0 0,-15.81 m -1710.72,0.03 0,15.78 7.62,0 c -2.59,-5.24 -5.12,-10.49 -7.62,-15.78"
         id="path68"
         inkscape:connector-curvature="0" /></clipPath></defs><sodipodi:namedview
     pagecolor="#00e700"
     bordercolor="#666666"
     borderopacity="1"
     objecttolerance="10"
     gridtolerance="10"
     guidetolerance="10"
     inkscape:pageopacity="0"
     inkscape:pageshadow="2"
     inkscape:window-width="1280"
     inkscape:window-height="800"
     id="namedview4"
     showgrid="false"
     inkscape:zoom="11.313709"
     inkscape:cx="307.2029"
     inkscape:cy="147.87447"
     inkscape:window-x="-8"
     inkscape:window-y="-8"
     inkscape:window-maximized="1"
     inkscape:current-layer="g10" /><g
     id="g10"
     inkscape:groupmode="layer"
     inkscape:label="ink_ext_XXXXXX"
     transform="matrix(1.25,0,0,-1.25,0,889.9375)"><g
       style="fill:#ffffff;fill-opacity:1;stroke:#ffffff;stroke-opacity:1"
       id="g14"><text
         id="text16"
         style="font-variant:normal;font-weight:bold;font-size:200px;font-family:'Myriad Pro';-inkscape-font-specification:MyriadPro-Bold;writing-mode:lr-tb;fill:#ffffff;fill-opacity:1;fill-rule:nonzero;stroke:#ffffff;stroke-opacity:1"
         transform="matrix(1,0,0,-1,425.958,484.298)"><tspan
           id="tspan18"
           sodipodi:role="line"
           y="0"
           x="0 131.2 233.39999 290.39999 392.5899 499.38989">ALILEO</tspan></text>
<text
         id="text20"
         style="font-variant:normal;font-weight:bold;font-size:200px;font-family:'Myriad Pro';-inkscape-font-specification:MyriadPro-BoldIt;writing-mode:lr-tb;fill:#ffffff;fill-opacity:1;fill-rule:nonzero;stroke:#ffffff;stroke-opacity:1"
         transform="matrix(1,0,0,-1,320.274,279.426)"><tspan
           style="font-style:italic;font-variant:normal;font-weight:bold;font-stretch:normal;font-size:200px;line-height:125%;font-family:'Myriad Pro';-inkscape-font-specification:'Myriad Pro, Bold Italic';text-align:start;writing-mode:lr-tb;text-anchor:start;fill:#ffffff;fill-opacity:1;stroke:#ffffff;stroke-opacity:1"
           id="tspan22"
           sodipodi:role="line"
           y="0"
           x="0 114.40098 226.19897 339.19702 450.99503 520.59357 573.59357 661.99109">Robotics</tspan></text>
</g><path
       inkscape:connector-curvature="0"
       id="path24"
       style="fill:#ffffff;fill-opacity:1;fill-rule:nonzero;stroke:#ffffff;stroke-width:0.1;stroke-opacity:1"
       d="m 284.822,544.426 1,0 0,30 -1,0 0,-30 z" /><path
       inkscape:connector-curvature="0"
       id="path26"
       style="fill:#ffffff;fill-opacity:1;fill-rule:nonzero;stroke:#ffffff;stroke-width:0.1;stroke-opacity:1"
       d="m 285.322,543.926 103.536,0 0,1 -103.536,0 0,-1 z" /><path
       inkscape:connector-curvature="0"
       id="path28"
       style="fill:#ffffff;fill-opacity:1;fill-rule:nonzero;stroke:#ffffff;stroke-width:0.1;stroke-opacity:1"
       d="m 285.322,573.926 129.904,0 0,1 -129.904,0 0,-1 z" /><path
       inkscape:connector-curvature="0"
       id="path30"
       style="fill:#ffffff;fill-opacity:1;fill-rule:nonzero;stroke:#ffffff;stroke-width:0.1;stroke-opacity:1"
       d="m 388.858,544.426 -103.536,0 0,30 129.904,0 0,-30" /><path
       inkscape:connector-curvature="0"
       id="path32"
       style="fill:#ffffff;fill-opacity:1;fill-rule:nonzero;stroke:#ffffff;stroke-width:0.1;stroke-opacity:1"
       d="m 385.715,561.946 3.152,-17.521 c -8.341,-49.649 -51.526,-87.479 -103.545,-87.479 -57.99,0 -105,47.01 -105,105 0,57.99 47.01,105 105,105 38.861,0 72.791,-21.111 90.947,-52.491 l 38.955,22.491 0,0 -129.903,75 -129.904,-75 0,-150 129.905,-75 129.903,74.999 -0.001,75.001 -29.509,0" /><path
       inkscape:connector-curvature="0"
       id="path34"
       style="fill:#ffffff;fill-opacity:1;fill-rule:nonzero;stroke:#ffffff;stroke-width:0.1;stroke-opacity:1"
       d="m 116.913,432.519 c -52.1907,0 -94.5005,-42.309 -94.5005,-94.5 0,-52.191 42.3098,-94.5 94.5005,-94.5 52.191,0 94.5,42.309 94.5,94.5 0,52.191 -42.309,94.5 -94.5,94.5 z m 0,-229.5 -116.913,67.5 0,135 116.914,67.5 116.912,-67.5 0,-135 -116.913,-67.5" /><path
       inkscape:connector-curvature="0"
       id="path36"
       style="fill:#ffffff;fill-opacity:1;fill-rule:nonzero;stroke:#ffffff;stroke-width:0.1;stroke-opacity:1"
       d="m 130.413,338.019 c 0,-7.457 -6.044,-13.5 -13.5,-13.5 -7.455,0 -13.5,6.043 -13.5,13.5 0,7.456 6.045,13.5 13.5,13.5 7.456,0 13.5,-6.044 13.5,-13.5" /><path
       inkscape:connector-curvature="0"
       id="path38"
       style="fill:#ffffff;fill-opacity:1;fill-rule:nonzero;stroke:#ffffff;stroke-width:0.1;stroke-opacity:1"
       d="m 145.815,342.168 52.16,13.976 -6.988,26.08 -52.159,-13.978 6.987,-26.078" /><path
       inkscape:connector-curvature="0"
       id="path40"
       style="fill:#ffffff;fill-opacity:1;fill-rule:nonzero;stroke:#ffffff;stroke-width:0.1;stroke-opacity:1"
       d="m 93.0547,332.221 52.1593,13.978 -4.891,18.255 -52.1597,-13.976 4.8914,-18.257" /><path
       inkscape:connector-curvature="0"
       id="path42"
       style="fill:#ffffff;fill-opacity:1;fill-rule:nonzero;stroke:#ffffff;stroke-width:0.1;stroke-opacity:1"
       d="m 39.8457,322.16 52.1609,13.974 -2.7953,10.433 -52.1605,-13.976 2.7949,-10.431" /><path
       inkscape:connector-curvature="0"
       id="path44"
       style="fill:#ffffff;fill-opacity:1;fill-rule:nonzero;stroke:#ffffff;stroke-width:0.1;stroke-opacity:1"
       d="m 120.403,331.784 -40.4999,-70.148 -4.6761,2.701 40.5,70.147 4.676,-2.7" /><path
       inkscape:connector-curvature="0"
       id="path46"
       style="fill:#ffffff;fill-opacity:1;fill-rule:nonzero;stroke:#ffffff;stroke-width:0.1;stroke-opacity:1"
       d="m 154.068,261.634 -40.5,70.15 4.676,2.7 40.5,-70.149 -4.676,-2.701" /><path
       inkscape:connector-curvature="0"
       id="path48"
       style="fill:#ffffff;fill-opacity:1;fill-rule:nonzero;stroke:#ffffff;stroke-width:0.1;stroke-opacity:1"
       d="m 233.826,229.5 c -52.191,0 -94.501,-42.309 -94.501,-94.5 0,-52.1918 42.31,-94.5 94.501,-94.5 52.191,0 94.499,42.3082 94.499,94.5 0,52.191 -42.308,94.5 -94.499,94.5 m 0,-229.5 -116.913,67.5 0,135 116.914,67.5 116.912,-67.5 0,-135 L 233.826,0" /><path
       style="fill:#ffffff;fill-opacity:1;stroke:#ffffff;stroke-opacity:1"
       d="m 245.86523,96.276202 c -0.38141,0.257212 -1.20379,0.919763 -1.82749,1.472334 -0.6237,0.55257 -1.66673,1.406704 -2.31784,1.898076 -0.6558,0.494918 -1.32288,1.171528 -1.49557,1.516948 -0.35186,0.7038 -0.41615,2.6337 -0.12921,3.87845 0.47311,2.0523 0.52453,3.24357 0.31646,7.33087 -0.23089,4.53549 -0.10447,6.63809 0.58556,9.73887 0.19522,0.87724 0.29168,1.6583 0.21437,1.73568 -0.1287,0.12882 -8.5776,4.08476 -8.72403,4.08476 -0.0351,0 -0.0638,-0.95319 -0.0638,-2.1182 0,-2.46575 -0.30241,-4.4054 -1.07501,-6.8951 -0.92791,-2.99021 -1.24026,-4.38891 -1.35813,-6.08175 -0.26417,-3.79402 1.01612,-5.90574 5.99328,-9.8854 2.4607,-1.96754 3.21508,-2.80334 3.21508,-3.562087 0,-1.098504 -0.97317,-1.69512 -2.5693,-1.575155 -0.66065,0.04966 -1.35631,-0.01264 -1.77678,-0.159085 -1.74477,-0.60772 -2.50619,-0.212612 -3.57788,1.856595 -1.03341,1.995312 -1.53758,2.527442 -3.93268,4.150802 -1.1122,0.75382 -2.71099,2.06798 -3.69312,3.03561 -2.68847,2.6488 -2.9833,3.74611 -1.60534,5.97504 0.84668,1.36955 0.83896,2.0673 -0.0494,4.46267 -1.63873,4.41866 -4.75725,8.99992 -8.967,13.17297 l -1.40762,1.39535 -4.79772,-3.02048 c -6.37866,-4.01579 -10.45502,-6.6499 -13.78749,-8.90935 -1.58604,-1.07536 -3.74577,-2.34365 -5.10403,-2.99733 -2.19539,-1.05656 -2.46758,-1.24567 -4.02578,-2.79697 -1.15443,-1.14933 -2.1398,-1.93427 -3.1867,-2.53852 -0.83353,-0.4811 -1.69748,-1.03855 -1.91989,-1.23877 -0.53457,-0.48125 -0.92747,-1.84011 -1.04016,-3.59737 -0.13201,-2.05863 -0.0195,-2.20732 2.10034,-2.77691 2.68392,-0.72113 3.27792,-1.2739 3.14128,-2.92322 -0.12431,-1.500406 -0.64358,-2.03529 -3.22497,-3.321929 -2.82241,-1.406777 -3.41909,-1.459135 -4.67885,-0.410564 -1.09021,0.90744 -1.78589,1.266873 -2.75099,1.421347 -0.90591,0.144997 -1.13113,0.457153 -1.53098,2.121936 -0.3967,1.6517 -0.55743,6.56693 -0.26896,8.22506 0.11711,0.67315 0.56483,2.04848 0.99492,3.0563 0.43009,1.00781 1.11022,2.87769 1.5114,4.15529 0.55712,1.77422 0.82983,2.38875 1.15455,2.60172 0.24698,0.16198 1.13735,0.34627 2.12472,0.43978 2.03628,0.19283 2.76058,0.4673 3.3807,1.28109 0.76067,0.99824 2.43182,4.67722 4.91541,10.82113 3.09155,7.64785 4.10471,9.82204 5.9169,12.69733 0.83516,1.3251 1.82632,2.93128 2.20257,3.56929 0.37625,0.63801 0.85025,1.4411 1.05332,1.78465 l 0.36922,0.62462 -0.61865,-0.50795 c -1.35059,-1.10891 -8.79998,-8.2972 -10.90023,-10.51818 -6.56467,-6.94201 -9.09647,-10.16985 -13.25856,-16.9036 -2.75359,-4.45497 -5.28309,-7.70301 -8.07798,-10.37262 -2.76626,-2.64226 -4.76821,-3.72609 -6.88251,-3.72609 -2.47024,0 -5.26015,2.01114 -5.84948,4.21667 -0.11468,0.42919 -0.2721,0.78034 -0.34982,0.78034 -0.0777,0 -0.14132,0.4417 -0.14132,0.98156 0,0.53986 0.0715,0.98156 0.15897,0.98156 0.0874,0 0.20775,0.19456 0.26738,0.43237 0.12914,0.51503 1.01097,1.43495 1.73456,1.80949 1.31887,0.68267 3.22999,0.61442 4.03685,-0.14416 0.95685,-0.89959 0.81443,-2.68198 -0.32801,-4.10495 l -0.56895,-0.70865 0.60349,0.12791 c 2.22411,0.47142 4.24816,1.70025 6.23774,3.78704 1.36293,1.42952 1.94206,2.24824 4.36554,6.17164 5.98324,9.68633 18.7549,23.78334 28.33368,31.27394 4.38561,3.42955 6.9827,4.87175 10.71422,5.94979 5.4462,1.5734 8.59716,2.03979 13.71222,2.02959 4.22736,-0.008 7.44748,-0.30516 14.94138,-1.37688 8.35358,-1.19466 8.99717,-1.24967 14.65563,-1.25276 4.27902,-0.002 5.46948,0.0537 6.90417,0.32513 l 1.7336,0.32795 2.60162,1.86247 c 5.16827,3.69992 8.81701,6.01493 11.35656,7.20538 1.32579,0.62148 1.95767,0.77211 6.28787,1.4989 8.87406,1.48945 13.529,2.06311 16.79246,2.06945 1.96915,0.004 5.8719,-0.62105 7.90143,-1.2651 2.80371,-0.88973 3.74833,-2.21658 3.11949,-4.38177 -0.15833,-0.54514 -0.26306,-1.00974 -0.23274,-1.03244 0.0303,-0.0227 0.9778,-0.48536 2.10552,-1.02813 2.51766,-1.21174 3.33332,-1.8021 4.19485,-3.03611 0.64642,-0.92589 0.8034,-1.02621 4.631,-2.95929 3.60567,-1.82101 4.35527,-2.28747 5.0366,-3.13421 0.26636,-0.33102 0.29251,-1.11395 0.0473,-1.41498 -0.87542,-1.07453 -1.07246,-1.38416 -1.07246,-1.68528 0,-0.70741 -0.53107,-2.07992 -1.05944,-2.73803 -0.47648,-0.59348 -0.52112,-0.7402 -0.35681,-1.17278 0.10329,-0.27194 0.19677,-1.01967 0.20775,-1.66163 0.0372,-2.17608 -0.7812,-2.95757 -3.07058,-2.93215 -1.5658,0.0174 -2.86571,0.42497 -3.70583,1.16195 -0.83576,0.73316 -1.47503,0.68347 -2.40769,-0.18713 l -0.75085,-0.70089 -0.0892,-2.2637 -0.0891,-2.26369 -0.90137,-0.82904 c -0.49575,-0.45597 -1.41843,-1.10232 -2.05039,-1.43634 -0.63197,-0.33402 -1.41258,-0.83539 -1.7347,-1.11416 -0.48154,-0.41674 -0.75096,-0.50698 -1.51551,-0.50762 -0.53229,-3.6e-4 -1.46344,-0.18959 -2.17791,-0.4424 -0.69181,-0.2448 -1.65422,-0.4433 -2.15935,-0.44539 l -0.91129,-0.004 -0.0971,-1.0722 c -0.0553,-0.61085 -0.25778,-1.34475 -0.4705,-1.70562 -0.20535,-0.34837 -0.37337,-0.8569 -0.37337,-1.13006 0,-0.78328 -0.64701,-3.112 -1.12838,-4.0613 -0.2412,-0.47565 -0.81102,-1.34443 -1.26628,-1.93062 -1.03149,-1.32816 -1.15149,-1.75502 -0.6748,-2.4004 0.49164,-0.6656 2.16065,-4.02179 4.04499,-8.13401 2.65196,-5.78739 3.9471,-8.17553 5.25693,-9.69339 0.65091,-0.75428 1.42042,-1.48937 1.71002,-1.63353 0.71863,-0.35772 1.79303,-0.2999 2.75523,0.14826 0.44128,0.20554 1.05179,0.37547 1.35669,0.37762 1.17364,0.008 3.09426,-2.37329 3.09895,-3.842744 0.002,-0.629411 -0.79949,-1.983793 -1.5007,-2.535886 -1.10963,-0.87367 -2.28767,-0.92837 -4.91618,-0.228276 -0.73547,0.19589 -1.67237,0.358054 -2.08199,0.360363 -0.62841,0.0036 -0.82341,0.09958 -1.24807,0.614654 -0.29929,0.363014 -0.82851,0.721071 -1.30562,0.883351 -0.5452,0.185437 -1.00004,0.51885 -1.41923,1.040345 -1.73429,2.157513 -7.31547,7.534723 -10.88314,10.485403 -4.52226,3.74019 -6.77643,5.83397 -7.75584,7.20402 -0.47694,0.66715 -0.80178,0.96525 -0.98063,0.89989 -0.14709,-0.0537 -0.71167,-0.14003 -1.25461,-0.19174 -1.81713,-0.17307 -3.63794,1.01232 -4.47927,2.91609 -0.18966,0.42918 -0.41484,0.78032 -0.50039,0.78032 -0.0856,0 -0.64927,-0.1266 -1.2527,-0.28134 -0.76493,-0.19615 -1.51162,-0.251 -2.46596,-0.18113 -2.03211,0.14878 -2.1327,0.14905 -3.77693,0.0102 -1.23228,-0.10404 -1.80059,-0.0598 -3.03102,0.23617 -0.83291,0.20032 -2.41147,0.40899 -3.50792,0.46372 l -1.99355,0.0995 -1.67957,-3.2521 c -0.92376,-1.78865 -2.14452,-4.01503 -2.71279,-4.94751 -2.01207,-3.3016 -2.73685,-5.46372 -2.52182,-7.52295 0.15416,-1.47638 0.44985,-1.96207 2.42785,-3.98802 2.76326,-2.830228 3.18151,-3.747035 2.22726,-4.882176 -0.47563,-0.565789 -1.07825,-0.818653 -2.40115,-1.007537 -0.44128,-0.06301 -1.26399,-0.269392 -1.82824,-0.458636 -1.42378,-0.477524 -2.25227,-0.444438 -3.09458,0.123581 z"
       id="path4922"
       inkscape:connector-curvature="0" /><g
       style="fill:#ffffff;fill-opacity:1;stroke:#ffffff;stroke-opacity:1"
       id="g74"><text
         id="text76"
         style="font-variant:normal;font-weight:bold;font-size:100px;font-family:'Myriad Pro';-inkscape-font-specification:MyriadPro-BoldIt;writing-mode:lr-tb;fill:#ffffff;fill-opacity:1;fill-rule:nonzero;stroke:#ffffff;stroke-opacity:1"
         transform="matrix(1,0,0,-1,400.571,105.517)"><tspan
           id="tspan78"
           sodipodi:role="line"
           y="0"
           x="0 51.099998 109.4 167.7 186.09688 231.49629 281.59628 337.49374 420.59375 438.99316 493.0918 547.19031 601.28894">FRC Team 4669</tspan></text>
<text
         id="text80"
         style="font-variant:normal;font-weight:bold;font-size:72px;font-family:'Myriad Pro';-inkscape-font-specification:MyriadPro-BoldIt;writing-mode:lr-tb;fill:#ffffff;fill-opacity:1;fill-rule:nonzero;stroke:#ffffff;stroke-opacity:1"
         transform="matrix(1,0,0,-1,453.6319,22.235)"><tspan
           id="tspan82"
           sodipodi:role="line"
           y="0"
           x="0 37.439484 77.686073 118.2213 131.46841 167.25162 193.24431 233.49042 274.02563 305.56082 324.64081 354.59149 385.19208 424.43137 443.15137 456.3985 498.87802">San Francisco, CA</tspan></text>
</g><path
       inkscape:connector-curvature="0"
       id="path84"
       style="fill:#ffffff;fill-opacity:1;fill-rule:nonzero;stroke:#ffffff;stroke-width:0.1;stroke-opacity:1"
       d="m 395.225,227.074 674.995,0" /><path
       inkscape:connector-curvature="0"
       id="path86"
       style="fill:#ffffff;fill-opacity:1;fill-rule:nonzero;stroke:#ffffff;stroke-width:0.1;stroke-opacity:1"
       d="m 395.225,221.074 674.995,0 0,12 -674.995,0 0,-12 z" /></g></svg>