<?xml version="1.0" standalone="no"?>
<!DOCTYPE svg PUBLIC "-//W3C//DTD SVG 20010904//EN"
 "http://www.w3.org/TR/2001/REC-SVG-20010904/DTD/svg10.dtd">
<svg version="1.0" xmlns="http://www.w3.org/2000/svg"
 width="800.000000pt" height="80.000000pt" viewBox="0 0 800.000000 80.000000"
 preserveAspectRatio="xMidYMid meet">
<metadata>
Created by potrace 1.16, written by Peter Selinger 2001-2019
</metadata>
<g transform="translate(0.000000,80.000000) scale(0.100000,-0.100000)"
fill="#000000" stroke="none">
<path d="M58 720 c-28 -17 -39 -46 -28 -74 7 -20 23 -29 72 -44 65 -19 82 -38
58 -67 -24 -29 -110 -12 -110 20 0 8 -7 15 -15 15 -8 0 -15 -8 -15 -18 0 -57
118 -83 164 -36 20 19 21 68 2 83 -8 6 -38 19 -67 29 -46 15 -54 21 -54 42 0
22 5 25 37 28 28 2 42 -2 55 -17 18 -21 43 -28 43 -12 0 5 -8 19 -18 31 -20
25 -96 37 -124 20z"/>
<path d="M262 650 c-60 -56 -27 -160 51 -160 22 0 41 8 55 23 37 40 20 53 -24
18 -13 -11 -33 -17 -43 -14 -19 5 -44 47 -34 57 4 3 33 6 65 6 52 0 58 2 58
20 0 31 -44 70 -78 70 -15 0 -38 -9 -50 -20z"/>
<path d="M452 650 c-60 -56 -27 -160 51 -160 22 0 41 8 55 23 37 40 20 53 -24
18 -13 -11 -33 -17 -43 -14 -19 5 -44 47 -34 57 4 3 33 6 65 6 52 0 58 2 58
20 0 31 -44 70 -78 70 -15 0 -38 -9 -50 -20z"/>
</g>
</svg>
